<?xml version="1.0" encoding="utf-8"?>
<!-- Generator: Adobe Illustrator 20.0.0, SVG Export Plug-In . SVG Version: 6.00 Build 0)  -->
<!DOCTYPE svg PUBLIC "-//W3C//DTD SVG 1.1//EN" "http://www.w3.org/Graphics/SVG/1.1/DTD/svg11.dtd">
<svg version="1.1" id="Ebene_1" xmlns="http://www.w3.org/2000/svg" xmlns:xlink="http://www.w3.org/1999/xlink" x="0px" y="0px"
	 viewBox="0 0 41.7 24.1" enable-background="new 0 0 41.7 24.1" xml:space="preserve">
<path fill="#FFFFFF" d="M22.4,23.1c-0.4,0.4-1,0.8-1.6,0.8c-0.3,0-0.6-0.1-0.9-0.2c-0.9-0.4-1.4-1.2-1.4-2.2V2.9
	c0-1.3,1.1-2.4,2.4-2.4c1.3,0,2.4,1.1,2.4,2.4v12.6L37.6,1.2c0.4-0.4,1.1-0.7,1.7-0.7c0.6,0,1.2,0.2,1.7,0.7
	c0.5,0.5,0.7,1.1,0.7,1.7c0,0.6-0.4,1.3-0.7,1.6L22.4,23.1z"/>
</svg>
