<?xml version="1.0" encoding="utf-8"?>
<!-- Generator: Adobe Illustrator 20.0.0, SVG Export Plug-In . SVG Version: 6.00 Build 0)  -->
<!DOCTYPE svg PUBLIC "-//W3C//DTD SVG 1.1//EN" "http://www.w3.org/Graphics/SVG/1.1/DTD/svg11.dtd">
<svg version="1.1" id="Ebene_1" xmlns="http://www.w3.org/2000/svg" xmlns:xlink="http://www.w3.org/1999/xlink" x="0px" y="0px"
	 viewBox="0 0 41.7 24.1" enable-background="new 0 0 41.7 24.1" xml:space="preserve">
<path fill="#FFFFFF" d="M39.7,11.4c-0.2,0-0.3-0.1-0.5-0.1c-1.1,0-2.1,0.8-2.4,1.9c0,0,0,0.1,0,0.1c-0.6,3.4-3.6,5.9-7.1,5.9
	c-0.9,0-1.8-0.2-2.6-0.5L38.6,7.2c0.5-0.5,0.7-1.1,0.7-1.7c0-0.6-0.3-1.2-0.7-1.7C36.2,1.4,33,0,29.6,0C23,0,17.6,5.4,17.6,12.1
	c0,6.7,5.4,12.1,12.1,12.1c5.8,0,10.8-4.1,11.9-9.8c0,0,0,0,0-0.1c0-0.1,0-0.2,0-0.3l0,0C41.7,12.8,40.8,11.6,39.7,11.4 M22.4,12.1
	c0-4,3.2-7.2,7.2-7.2c1.3,0,2.5,0.3,3.6,0.9l-9.8,9.9C22.7,14.6,22.4,13.4,22.4,12.1"/>
</svg>
